<?xml version="1.0"?>

<svg version="1.1" id="Layer_1" xmlns="http://www.w3.org/2000/svg" xmlns:xlink="http://www.w3.org/1999/xlink" x="0px" y="0px" viewBox="29 157 570.6 203" style="enable-background:new 29 157 570.6 203;" xml:space="preserve">
<g id="Layer_1_1_">
&#x9;<path id="XMLID_6_" d="M131.7,161c-53.5,0-96.9,43.4-96.9,96.9s43.4,96.9,96.9,96.9s96.9-43.4,96.9-96.9&#xA;&#x9;&#x9;C228.7,204.4,185.3,161,131.7,161z M109,286.2l0.1,41.9c0,1.8-1.3,2.9-3.1,2.9H91.2c-1.8,0-1.2-0.8-1.2-2.6v-97.9&#xA;&#x9;&#x9;c0-1.8-0.8-3.5,1-3.5h14.9c1.8,0,3.3,0.8,3.3,2.6V263H109V286.2z M173.1,264c-2.3,5.8-6,10.6-11,14.4c-1.8,1.4-3.7,2.6-5.8,3.6&#xA;&#x9;&#x9;c-2,1-4.3,1.7-6.9,2.3c-2.5,0.6-5.4,1.1-8.6,1.4l-7.1,0.6c-1.9,0.2-3.8-1.3-3.8-3.2v-15.5c0-1.7,1.6-3.1,3.3-3.2&#xA;&#x9;&#x9;c2.2-0.1,4.5-0.3,6.5-0.6c3.1-0.5,5.8-1.4,8-2.7c2.2-1.3,4-3.2,5.3-5.6c1.3-2.4,1.9-5.6,1.9-9.6c0-4.3-0.7-7.8-2-10.3&#xA;&#x9;&#x9;s-3.2-4.4-5.5-5.6s-5.1-2-8.2-2.3s-6.6-0.5-10.3-0.5h-16.7c-1.8,0-3.3-1.4-3.3-3.2v-14.7c0-1.8,1.6-4.3,3.4-4.3h16.3&#xA;&#x9;&#x9;c4.4,0,8.4,0.5,11.7,0.8c3.4,0.3,6.3,0.9,8.9,1.5c2.6,0.6,4.9,1.5,6.9,2.4c2,1,4,2.2,5.8,3.5c5.1,3.8,8.7,8.7,11,14.6&#xA;&#x9;&#x9;c2.3,5.9,3.4,11.9,3.4,18C176.5,252.2,175.3,258.2,173.1,264z M109,195.4l-0.1,8.1c0,0.4-1.5,0.5-3.3,0.5H90.8&#xA;&#x9;&#x9;c-1.8,0-0.8,0.1-0.8-0.3v-19.2c0-0.4-1.1,1.5,0.7,1.5h14.8c1.8,0,3.2-0.4,3.2,0v6h0.3V195.4z"></path>
&#x9;<g id="XMLID_3_">
&#x9;</g>
&#x9;<g id="XMLID_5_">
&#x9;&#x9;<g id="XMLID_2_">
&#x9;&#x9;&#x9;<path id="XMLID_22_" d="M253,183.8v-13.6h11.8v13.6C264.8,183.8,253,183.8,253,183.8z M253,248.2v-56.7h11.8v56.7H253z"></path>
&#x9;&#x9;&#x9;<path id="XMLID_25_" d="M277.7,248.2v-56.7H289v11.1l-1.4-1.5c1.4-3.6,3.6-6.3,6.7-8.1s6.6-2.8,10.7-2.8c4.2,0,7.9,0.9,11.1,2.7&#xA;&#x9;&#x9;&#x9;&#x9;c3.2,1.8,5.7,4.3,7.5,7.5c1.8,3.2,2.7,6.9,2.7,11.1v36.6h-11.7v-33.3c0-2.9-0.5-5.3-1.6-7.3c-1-2-2.5-3.5-4.5-4.6&#xA;&#x9;&#x9;&#x9;&#x9;c-1.9-1.1-4.1-1.6-6.5-1.6s-4.6,0.5-6.5,1.6c-1.9,1.1-3.4,2.6-4.5,4.7c-1,2-1.6,4.4-1.6,7.2v33.4&#xA;&#x9;&#x9;&#x9;&#x9;C289.4,248.2,277.7,248.2,277.7,248.2z"></path>
&#x9;&#x9;&#x9;<path id="XMLID_27_" d="M353.4,248.2l-22.2-56.7h12.9l17.1,46.2h-4.7l17.1-46.2h13l-22.3,56.7H353.4z"></path>
&#x9;&#x9;&#x9;<path id="XMLID_29_" d="M419.8,249.5c-5.4,0-10.4-1.3-14.9-3.9c-4.5-2.6-8.1-6.1-10.7-10.6c-2.7-4.5-4-9.5-4-15.2&#xA;&#x9;&#x9;&#x9;&#x9;s1.3-10.8,4-15.2c2.7-4.4,6.2-7.9,10.7-10.5c4.5-2.5,9.5-3.8,15-3.8c5.6,0,10.6,1.3,15,3.8c4.4,2.6,8,6,10.6,10.5&#xA;&#x9;&#x9;&#x9;&#x9;c2.6,4.4,3.9,9.5,3.9,15.2s-1.3,10.8-4,15.3s-6.2,8-10.7,10.5C430.2,248.2,425.3,249.5,419.8,249.5z M419.8,238.5&#xA;&#x9;&#x9;&#x9;&#x9;c3.4,0,6.3-0.8,8.9-2.4c2.6-1.6,4.6-3.8,6.1-6.7c1.5-2.8,2.3-6,2.3-9.6s-0.8-6.7-2.3-9.5s-3.5-5-6.1-6.6&#xA;&#x9;&#x9;&#x9;&#x9;c-2.6-1.6-5.6-2.4-8.9-2.4s-6.2,0.8-8.9,2.4c-2.6,1.6-4.7,3.8-6.2,6.6s-2.3,6-2.3,9.5s0.7,6.8,2.3,9.6c1.5,2.8,3.6,5,6.2,6.7&#xA;&#x9;&#x9;&#x9;&#x9;C413.6,237.7,416.5,238.5,419.8,238.5z"></path>
&#x9;&#x9;&#x9;<path id="XMLID_32_" d="M459.8,248.2v-79.3h11.8v79.3C471.6,248.2,459.8,248.2,459.8,248.2z"></path>
&#x9;&#x9;&#x9;<path id="XMLID_34_" d="M500.9,248.2l-22.2-56.7h12.9l17.1,46.2H504l17-46.2h13l-22.3,56.7H500.9z"></path>
&#x9;&#x9;&#x9;<path id="XMLID_36_" d="M566.6,249.5c-5.7,0-10.7-1.3-15-3.9c-4.4-2.6-7.8-6.2-10.2-10.7c-2.4-4.5-3.7-9.5-3.7-15.1&#xA;&#x9;&#x9;&#x9;&#x9;c0-5.7,1.2-10.8,3.7-15.2c2.5-4.4,5.8-7.9,10-10.4c4.2-2.5,8.9-3.8,14.2-3.8c4.3,0,8.1,0.7,11.4,2.2c3.4,1.5,6.2,3.5,8.5,6&#xA;&#x9;&#x9;&#x9;&#x9;s4.1,5.5,5.3,8.7c1.2,3.3,1.8,6.8,1.8,10.5c0,0.9,0,1.9-0.1,2.8c-0.1,1-0.2,1.9-0.4,2.7H547v-9.4h38.4l-5.7,4.3&#xA;&#x9;&#x9;&#x9;&#x9;c0.7-3.4,0.5-6.5-0.7-9.2c-1.2-2.7-2.9-4.8-5.2-6.4s-5.1-2.4-8.2-2.4s-5.9,0.8-8.4,2.4c-2.4,1.6-4.3,3.8-5.7,6.7&#xA;&#x9;&#x9;&#x9;&#x9;c-1.3,2.9-1.9,6.4-1.6,10.5c-0.3,3.8,0.2,7.2,1.6,10.1c1.4,2.9,3.5,5.1,6.1,6.7c2.6,1.6,5.6,2.4,9,2.4s6.3-0.8,8.7-2.3&#xA;&#x9;&#x9;&#x9;&#x9;s4.3-3.5,5.7-6l9.6,4.7c-1.1,2.7-2.8,5-5.2,7.2c-2.3,2.1-5.1,3.8-8.4,5C574,248.9,570.4,249.5,566.6,249.5z"></path>
&#x9;&#x9;</g>
&#x9;&#x9;<g id="XMLID_4_">
&#x9;&#x9;&#x9;<path id="XMLID_10_" d="M251.7,344.9v-77.6H263V279l-1.4-2.7c2.1-3.2,4.9-5.7,8.4-7.5c3.5-1.8,7.5-2.7,11.9-2.7&#xA;&#x9;&#x9;&#x9;&#x9;c5.4,0,10.2,1.3,14.5,3.9c4.3,2.6,7.7,6.1,10.2,10.6s3.7,9.5,3.7,15.1s-1.2,10.6-3.7,15.1s-5.8,8-10.1,10.6&#xA;&#x9;&#x9;&#x9;&#x9;c-4.3,2.6-9.1,3.9-14.6,3.9c-4.4,0-8.4-0.9-12-2.7c-3.6-1.8-6.4-4.4-8.3-7.9l1.9-2.2V345h-11.8V344.9z M280.8,314.2&#xA;&#x9;&#x9;&#x9;&#x9;c3.4,0,6.3-0.8,8.9-2.4c2.6-1.6,4.6-3.8,6.1-6.7c1.5-2.8,2.3-6,2.3-9.6s-0.8-6.7-2.3-9.5s-3.5-5-6.1-6.6s-5.6-2.4-8.9-2.4&#xA;&#x9;&#x9;&#x9;&#x9;c-3.3,0-6.2,0.8-8.9,2.4c-2.6,1.6-4.7,3.8-6.2,6.6s-2.3,6-2.3,9.5c0,3.6,0.7,6.8,2.3,9.6c1.5,2.8,3.6,5,6.2,6.7&#xA;&#x9;&#x9;&#x9;&#x9;C274.6,313.4,277.5,314.2,280.8,314.2z"></path>
&#x9;&#x9;&#x9;<path id="XMLID_15_" d="M320.8,323.9v-56.7h11.3v11.4l-1-1.7c1.3-3.7,3.3-6.4,6.1-8c2.8-1.6,6.1-2.5,10.1-2.5h3.5v10.8h-4.9&#xA;&#x9;&#x9;&#x9;&#x9;c-3.9,0-7.1,1.2-9.5,3.6c-2.4,2.4-3.6,5.8-3.6,10.3v32.7h-12V323.9z"></path>
&#x9;&#x9;&#x9;<path id="XMLID_17_" d="M385,325.2c-5.4,0-10.4-1.3-14.9-3.9c-4.5-2.6-8.1-6.1-10.7-10.6c-2.7-4.5-4-9.5-4-15.2s1.3-10.8,4-15.2&#xA;&#x9;&#x9;&#x9;&#x9;c2.7-4.4,6.2-7.9,10.7-10.5c4.5-2.5,9.5-3.8,15-3.8c5.6,0,10.6,1.3,15,3.8s8,6,10.6,10.5c2.6,4.4,3.9,9.5,3.9,15.2&#xA;&#x9;&#x9;&#x9;&#x9;s-1.3,10.8-4,15.3s-6.2,8-10.7,10.5C395.4,323.9,390.5,325.2,385,325.2z M385,314.2c3.4,0,6.3-0.8,8.9-2.4&#xA;&#x9;&#x9;&#x9;&#x9;c2.6-1.6,4.6-3.8,6.1-6.7c1.5-2.8,2.3-6,2.3-9.6s-0.8-6.7-2.3-9.5s-3.5-5-6.1-6.6s-5.6-2.4-8.9-2.4s-6.2,0.8-8.9,2.4&#xA;&#x9;&#x9;&#x9;&#x9;c-2.6,1.6-4.7,3.8-6.2,6.6s-2.3,6-2.3,9.5c0,3.6,0.7,6.8,2.3,9.6c1.5,2.8,3.6,5,6.2,6.7C378.8,313.4,381.7,314.2,385,314.2z"></path>
&#x9;&#x9;&#x9;<path id="XMLID_20_" d="M430.3,323.9v-13.6h12v13.6H430.3z"></path>
&#x9;&#x9;</g>
&#x9;</g>
&#x9;<g id="XMLID_1_">
&#x9;</g>
</g>
<g id="Layer_2">
&#x9;<g id="XMLID_9_">
&#x9;</g>
&#x9;<g id="XMLID_38_">
&#x9;</g>
&#x9;<g id="XMLID_39_">
&#x9;</g>
&#x9;<g id="XMLID_40_">
&#x9;</g>
&#x9;<g id="XMLID_41_">
&#x9;</g>
&#x9;<g id="XMLID_42_">
&#x9;</g>
&#x9;<g id="XMLID_43_">
&#x9;</g>
&#x9;<g id="XMLID_44_">
&#x9;</g>
&#x9;<g id="XMLID_45_">
&#x9;</g>
&#x9;<g id="XMLID_46_">
&#x9;</g>
&#x9;<g id="XMLID_47_">
&#x9;</g>
&#x9;<g id="XMLID_48_">
&#x9;</g>
&#x9;<g id="XMLID_49_">
&#x9;</g>
&#x9;<g id="XMLID_50_">
&#x9;</g>
&#x9;<g id="XMLID_51_">
&#x9;</g>
</g>
</svg>