<?xml version="1.0"?>

<svg version="1.1" xmlns="http://www.w3.org/2000/svg" xmlns:xlink="http://www.w3.org/1999/xlink" x="0px" y="0px" viewBox="0 0 570.6 220" style="enable-background:new 0 0 570.6 220;" xml:space="preserve">

<g id="Layer_1">
&#x9;<path id="XMLID_6_" class="st0" d="M102.7,14.6C49.2,14.6,5.8,58,5.8,111.6c0,53.5,43.4,96.9,96.9,96.9s96.9-43.4,96.9-96.9&#xA;&#x9;&#x9;C199.7,58,156.3,14.6,102.7,14.6z M80,139.8l0.1,42.1c0,1.8-1.3,3.1-3.1,3.1H62.2c-1.8,0-1.2-1.1-1.2-2.9V84.2c0-1.8-0.8-3.2,1-3.2&#xA;&#x9;&#x9;h14.9c1.8,0,3.3,0.8,3.3,2.6l0,33.4H80V139.8z M144.1,117.6c-2.3,5.8-6,10.6-11,14.4c-1.8,1.4-3.7,2.6-5.8,3.6&#xA;&#x9;&#x9;c-2,1-4.3,1.7-6.9,2.3c-2.5,0.6-5.4,1.1-8.6,1.4l-7.1,0.6c-1.9,0.2-3.8-1.3-3.8-3.2v-15.5c0-1.7,1.6-3.1,3.3-3.2&#xA;&#x9;&#x9;c2.2-0.1,4.5-0.3,6.5-0.6c3.1-0.5,5.8-1.4,8-2.7c2.2-1.3,4-3.2,5.3-5.6c1.3-2.4,1.9-5.6,1.9-9.6c0-4.3-0.7-7.8-2-10.3&#xA;&#x9;&#x9;c-1.3-2.5-3.2-4.4-5.5-5.6c-2.3-1.2-5.1-2-8.2-2.3c-3.1-0.3-6.6-0.5-10.3-0.5l-16.7,0c-1.8,0-3.3-1.4-3.3-3.2V62.9&#xA;&#x9;&#x9;c0-1.8,1.6-3.9,3.4-3.9h16.3c4.4,0,8.4,0.3,11.7,0.6c3.4,0.3,6.3,0.8,8.9,1.4c2.6,0.6,4.9,1.4,6.9,2.4c2,1,4,2.1,5.8,3.5&#xA;&#x9;&#x9;c5.1,3.8,8.7,8.7,11,14.6c2.3,5.9,3.4,11.9,3.4,18C147.5,105.8,146.3,111.9,144.1,117.6z M79.9,57.2c0,0.5-1.5,0.8-3.3,0.8H61.8&#xA;&#x9;&#x9;C60,58,61,57.5,61,57.1V37.9c0-0.4-1.1,2.1,0.7,2.1h14.8c1.8,0,3.2-0.4,3.2,0l0,6C79.8,46,79.9,56.7,79.9,57.2z"></path>
&#x9;<g id="XMLID_5_">
&#x9;&#x9;<g id="XMLID_10_">
&#x9;&#x9;&#x9;<path id="XMLID_12_" class="st0" d="M225.9,104.3v-78h12.4v78H225.9z"></path>
&#x9;&#x9;&#x9;<path id="XMLID_16_" class="st0" d="M252.2,104.3V47.6h11.3v11.1l-1.4-1.5c1.4-3.6,3.6-6.3,6.7-8.1c3.1-1.8,6.6-2.8,10.7-2.8&#xA;&#x9;&#x9;&#x9;&#x9;c4.2,0,7.9,0.9,11.1,2.7c3.2,1.8,5.7,4.3,7.5,7.5c1.8,3.2,2.7,6.9,2.7,11.1v36.6h-11.7V70.8c0-2.9-0.5-5.3-1.6-7.3&#xA;&#x9;&#x9;&#x9;&#x9;c-1-2-2.5-3.5-4.5-4.6c-1.9-1.1-4.1-1.6-6.5-1.6c-2.4,0-4.6,0.5-6.5,1.6c-1.9,1.1-3.4,2.6-4.5,4.7c-1,2-1.6,4.4-1.6,7.2v33.4&#xA;&#x9;&#x9;&#x9;&#x9;H252.2z"></path>
&#x9;&#x9;&#x9;<path id="XMLID_18_" class="st0" d="M327.9,104.3l-22.2-56.7h12.9l17.1,46.2h-4.7L348,47.6h13l-22.3,56.7H327.9z"></path>
&#x9;&#x9;&#x9;<path id="XMLID_20_" class="st0" d="M394.3,105.5c-5.4,0-10.4-1.3-14.9-3.9c-4.5-2.6-8.1-6.1-10.7-10.6c-2.7-4.5-4-9.5-4-15.2&#xA;&#x9;&#x9;&#x9;&#x9;c0-5.7,1.3-10.8,4-15.2c2.7-4.4,6.2-7.9,10.7-10.5c4.5-2.5,9.5-3.8,15-3.8c5.6,0,10.6,1.3,15,3.8c4.4,2.6,8,6,10.6,10.5&#xA;&#x9;&#x9;&#x9;&#x9;c2.6,4.4,3.9,9.5,3.9,15.2c0,5.7-1.3,10.8-4,15.3c-2.7,4.5-6.2,8-10.7,10.5C404.7,104.2,399.8,105.5,394.3,105.5z M394.3,94.5&#xA;&#x9;&#x9;&#x9;&#x9;c3.4,0,6.3-0.8,8.9-2.4c2.6-1.6,4.6-3.8,6.1-6.7c1.5-2.8,2.3-6,2.3-9.6s-0.8-6.7-2.3-9.5c-1.5-2.8-3.5-5-6.1-6.6&#xA;&#x9;&#x9;&#x9;&#x9;c-2.6-1.6-5.6-2.4-8.9-2.4c-3.3,0-6.2,0.8-8.9,2.4c-2.6,1.6-4.7,3.8-6.2,6.6c-1.5,2.8-2.3,6-2.3,9.5s0.7,6.8,2.3,9.6&#xA;&#x9;&#x9;&#x9;&#x9;c1.5,2.8,3.6,5,6.2,6.7C388.1,93.7,391,94.5,394.3,94.5z"></path>
&#x9;&#x9;&#x9;<path id="XMLID_23_" class="st0" d="M434.3,104.3V25h11.8v79.3H434.3z"></path>
&#x9;&#x9;&#x9;<path id="XMLID_25_" class="st0" d="M475.4,104.3l-22.2-56.7h12.9l17.1,46.2h-4.7l17.1-46.2h13l-22.3,56.7H475.4z"></path>
&#x9;&#x9;&#x9;<path id="XMLID_27_" class="st0" d="M541.1,105.5c-5.7,0-10.7-1.3-15-3.9c-4.4-2.6-7.8-6.2-10.2-10.7c-2.4-4.5-3.7-9.5-3.7-15.1&#xA;&#x9;&#x9;&#x9;&#x9;c0-5.7,1.2-10.8,3.7-15.2c2.5-4.4,5.8-7.9,10-10.4c4.2-2.5,8.9-3.8,14.2-3.8c4.3,0,8.1,0.7,11.4,2.2c3.4,1.5,6.2,3.5,8.5,6&#xA;&#x9;&#x9;&#x9;&#x9;c2.3,2.5,4.1,5.5,5.3,8.7c1.2,3.3,1.8,6.8,1.8,10.5c0,0.9,0,1.9-0.1,2.8c-0.1,1-0.2,1.9-0.4,2.7h-45.1v-9.4h38.4l-5.7,4.3&#xA;&#x9;&#x9;&#x9;&#x9;c0.7-3.4,0.5-6.5-0.7-9.2c-1.2-2.7-2.9-4.8-5.2-6.4c-2.3-1.6-5.1-2.4-8.2-2.4s-5.9,0.8-8.4,2.4c-2.4,1.6-4.3,3.8-5.7,6.7&#xA;&#x9;&#x9;&#x9;&#x9;c-1.3,2.9-1.9,6.4-1.6,10.5c-0.3,3.8,0.2,7.2,1.6,10.1c1.4,2.9,3.5,5.1,6.1,6.7c2.6,1.6,5.6,2.4,9,2.4c3.4,0,6.3-0.8,8.7-2.3&#xA;&#x9;&#x9;&#x9;&#x9;c2.4-1.5,4.3-3.5,5.7-6l9.6,4.7c-1.1,2.7-2.8,5-5.2,7.2c-2.3,2.1-5.1,3.8-8.4,5C548.5,104.9,544.9,105.5,541.1,105.5z"></path>
&#x9;&#x9;</g>
&#x9;&#x9;<g id="XMLID_2_">
&#x9;&#x9;&#x9;<path id="XMLID_29_" class="st0" d="M224.4,195.8v-78h28.4c5.2,0,9.9,1,13.9,2.9c4,1.9,7.1,4.7,9.4,8.4c2.2,3.7,3.4,8,3.4,13.1&#xA;&#x9;&#x9;&#x9;&#x9;c0,5-1.1,9.4-3.4,13c-2.3,3.6-5.4,6.4-9.4,8.4c-4,2-8.6,2.9-13.8,2.9h-16v29.3H224.4z M236.7,155.5h16.3c2.8,0,5.2-0.6,7.3-1.7&#xA;&#x9;&#x9;&#x9;&#x9;c2.1-1.1,3.7-2.7,4.9-4.7c1.2-2,1.8-4.3,1.8-7.1s-0.6-5.1-1.8-7.1c-1.2-2-2.8-3.5-4.9-4.6c-2.1-1.1-4.5-1.6-7.3-1.6h-16.3V155.5z&#xA;&#x9;&#x9;&#x9;&#x9;"></path>
&#x9;&#x9;&#x9;<path id="XMLID_32_" class="st0" d="M289.8,195.8v-56.7h11.3v11.4l-1-1.7c1.3-3.7,3.3-6.4,6.1-8c2.8-1.6,6.1-2.5,10.1-2.5h3.5&#xA;&#x9;&#x9;&#x9;&#x9;v10.8h-4.9c-3.9,0-7.1,1.2-9.5,3.6c-2.4,2.4-3.6,5.9-3.6,10.3v32.7H289.8z"></path>
&#x9;&#x9;&#x9;<path id="XMLID_34_" class="st0" d="M354.1,197.1c-5.4,0-10.4-1.3-14.9-3.9c-4.5-2.6-8.1-6.1-10.7-10.6c-2.7-4.5-4-9.5-4-15.2&#xA;&#x9;&#x9;&#x9;&#x9;c0-5.7,1.3-10.8,4-15.2c2.7-4.4,6.2-7.9,10.7-10.5c4.5-2.5,9.5-3.8,15-3.8c5.6,0,10.6,1.3,15,3.8c4.4,2.5,8,6,10.6,10.5&#xA;&#x9;&#x9;&#x9;&#x9;c2.6,4.4,3.9,9.5,3.9,15.2c0,5.7-1.3,10.8-4,15.3c-2.7,4.5-6.2,8-10.7,10.5C364.5,195.8,359.5,197.1,354.1,197.1z M354.1,186.1&#xA;&#x9;&#x9;&#x9;&#x9;c3.4,0,6.3-0.8,8.9-2.4c2.6-1.6,4.6-3.8,6.1-6.7c1.5-2.8,2.3-6,2.3-9.6s-0.8-6.7-2.3-9.5c-1.5-2.8-3.5-5-6.1-6.6&#xA;&#x9;&#x9;&#x9;&#x9;c-2.6-1.6-5.6-2.4-8.9-2.4c-3.3,0-6.2,0.8-8.9,2.4c-2.6,1.6-4.7,3.8-6.2,6.6c-1.5,2.8-2.3,6-2.3,9.5s0.7,6.8,2.3,9.6&#xA;&#x9;&#x9;&#x9;&#x9;c1.5,2.8,3.6,5,6.2,6.7C347.8,185.3,350.8,186.1,354.1,186.1z"></path>
&#x9;&#x9;&#x9;<path id="XMLID_37_" class="st0" d="M399.3,195.8v-13.6h12v13.6H399.3z"></path>
&#x9;&#x9;</g>
&#x9;</g>
&#x9;<path id="XMLID_9_" class="st0" d="M81.6,53.3"></path>
</g>
<g id="Layer_2">
</g>
</svg>