<?xml version="1.0"?>

<svg version="1.1" xmlns="http://www.w3.org/2000/svg" xmlns:xlink="http://www.w3.org/1999/xlink" x="0px" y="0px" viewBox="0 0 570.6 220" style="enable-background:new 0 0 570.6 220;" xml:space="preserve">

<g id="Layer_1">
&#x9;<path id="XMLID_6_" class="st0" d="M102.7,14.6C49.2,14.6,5.8,58,5.8,111.6c0,53.5,43.4,96.9,96.9,96.9s96.9-43.4,96.9-96.9&#xA;&#x9;&#x9;C199.7,58,156.3,14.6,102.7,14.6z M80,139.8l0.1,42.1c0,1.8-1.3,3.1-3.1,3.1H62.2c-1.8,0-1.2-1.1-1.2-2.9V84.2c0-1.8-0.8-3.2,1-3.2&#xA;&#x9;&#x9;h14.9c1.8,0,3.3,0.8,3.3,2.6l0,33.4H80V139.8z M144.1,117.6c-2.3,5.8-6,10.6-11,14.4c-1.8,1.4-3.7,2.6-5.8,3.6&#xA;&#x9;&#x9;c-2,1-4.3,1.7-6.9,2.3c-2.5,0.6-5.4,1.1-8.6,1.4l-7.1,0.6c-1.9,0.2-3.8-1.3-3.8-3.2v-15.5c0-1.7,1.6-3.1,3.3-3.2&#xA;&#x9;&#x9;c2.2-0.1,4.5-0.3,6.5-0.6c3.1-0.5,5.8-1.4,8-2.7c2.2-1.3,4-3.2,5.3-5.6c1.3-2.4,1.9-5.6,1.9-9.6c0-4.3-0.7-7.8-2-10.3&#xA;&#x9;&#x9;c-1.3-2.5-3.2-4.4-5.5-5.6c-2.3-1.2-5.1-2-8.2-2.3c-3.1-0.3-6.6-0.5-10.3-0.5l-16.7,0c-1.8,0-3.3-1.4-3.3-3.2V62.9&#xA;&#x9;&#x9;c0-1.8,1.6-3.9,3.4-3.9h16.3c4.4,0,8.4,0.3,11.7,0.6c3.4,0.3,6.3,0.8,8.9,1.4c2.6,0.6,4.9,1.4,6.9,2.4c2,1,4,2.1,5.8,3.5&#xA;&#x9;&#x9;c5.1,3.8,8.7,8.7,11,14.6c2.3,5.9,3.4,11.9,3.4,18C147.5,105.8,146.3,111.9,144.1,117.6z M80,49.1l-0.1,8.3c0,0.4-1.5,0.6-3.3,0.6&#xA;&#x9;&#x9;H61.8C60,58,61,57.7,61,57.4V38.1c0-0.4-1.1,1.9,0.7,1.9h14.8c1.8,0,3.2-0.4,3.2,0l0,6H80V49.1z"></path>
&#x9;<g id="XMLID_5_">
&#x9;&#x9;<text id="XMLID_2_" transform="matrix(1 0 0 1 217.8135 104.2609)" class="st0 st1 st2 st3">Involve</text>
&#x9;&#x9;<text id="XMLID_11_" transform="matrix(1 0 0 1 216.3035 195.7967)" class="st0 st1 st2 st3">Pro.</text>
&#x9;</g>
</g>
<g id="Layer_2">
</g>
</svg>